<svg data-v-423bf9ae="" xmlns="http://www.w3.org/2000/svg" viewBox="0 0 311.60929125408796 163" class="iconAbove"><!----><!----><!----><g data-v-423bf9ae="" id="01f0071c-84e8-4a1a-8b3b-ceba242bdb7e" fill="white" transform="matrix(5.5813953488372094,0,0,5.5813953488372094,-0.2232549238170236,103.94883545470792)"><path d="M5.40 10.37L5.00 8.81L2.91 8.81L2.52 10.37L2.65 10.50L0.04 10.50L0.20 10.37L2.74 0.31L2.62 0.18L5.28 0.18L5.14 0.31L7.73 10.37L7.85 10.50L5.26 10.50L5.40 10.37ZM3.96 3.42L3.93 3.42L3.39 6.69L4.51 6.69L3.96 3.42ZM11.03 10.50L8.50 10.50L8.62 10.37L8.62 2.80L8.50 2.67L11.03 2.67L10.91 2.80L10.91 10.37L11.03 10.50ZM8.41 1.04L8.41 1.04L8.41 1.04Q8.41 0.63 8.61 0.36L8.61 0.36L8.61 0.36Q8.81 0.10 9.09-0.04L9.09-0.04L9.09-0.04Q9.38-0.17 9.72-0.17L9.72-0.17L9.72-0.17Q10.07-0.17 10.35-0.04L10.35-0.04L10.35-0.04Q10.64 0.10 10.84 0.36L10.84 0.36L10.84 0.36Q11.03 0.63 11.03 1.04L11.03 1.04L11.03 1.04Q11.03 1.43 10.84 1.70L10.84 1.70L10.84 1.70Q10.64 1.97 10.35 2.10L10.35 2.10L10.35 2.10Q10.07 2.23 9.72 2.23L9.72 2.23L9.72 2.23Q9.38 2.24 9.09 2.10L9.09 2.10L9.09 2.10Q8.81 1.96 8.61 1.70L8.61 1.70L8.61 1.70Q8.41 1.44 8.41 1.04ZM11.62 10.50L14.49 4.56L12.29 4.56L12.12 4.68L12.12 2.35L12.31 2.44L17.37 2.44L17.37 2.74L14.74 8.37L17.21 8.37L17.36 8.26L17.36 10.58L17.18 10.50L11.62 10.50ZM21.94 5.01L21.94 5.01L21.94 5.01Q21.94 4.83 21.81 4.70L21.81 4.70L21.81 4.70Q21.69 4.58 21.50 4.58L21.50 4.58L20.68 4.58L20.68 10.36L20.80 10.50L18.28 10.50L18.44 10.36L18.44 0.36L18.31 0.20L20.82 0.20L20.69 0.38L20.69 2.42L21.53 2.42L21.53 2.42Q22.22 2.42 22.71 2.61L22.71 2.61L22.71 2.61Q23.21 2.80 23.53 3.15L23.53 3.15L23.53 3.15Q23.86 3.50 24.01 4.00L24.01 4.00L24.01 4.00Q24.16 4.51 24.16 5.11L24.16 5.11L24.16 10.36L24.32 10.50L21.80 10.50L21.94 10.37L21.94 5.01ZM31.30 10.51L31.19 10.51L30.18 9.95L30.18 9.95Q29.81 10.22 29.42 10.37L29.42 10.37L29.42 10.37Q29.04 10.51 28.39 10.51L28.39 10.51L28.39 10.51Q27.78 10.51 27.25 10.37L27.25 10.37L27.25 10.37Q26.73 10.23 26.35 9.91L26.35 9.91L26.35 9.91Q25.97 9.59 25.75 9.07L25.75 9.07L25.75 9.07Q25.54 8.55 25.54 7.81L25.54 7.81L25.54 2.56L25.40 2.44L27.90 2.44L27.76 2.55L27.76 7.90L27.76 7.90Q27.76 8.13 27.97 8.25L27.97 8.25L27.97 8.25Q28.17 8.37 28.41 8.37L28.41 8.37L28.41 8.37Q28.66 8.37 28.86 8.25L28.86 8.25L28.86 8.25Q29.06 8.13 29.06 7.90L29.06 7.90L29.06 2.56L28.94 2.44L31.43 2.44L31.30 2.56L31.30 10.51ZM42.29 10.37L42.29 10.37L42.29 10.37L42.42 10.50L39.66 10.50L39.80 10.37L39.27 9.27L38.64 7.46L37.98 9.32L37.49 10.37L37.62 10.50L34.86 10.50L35.00 10.37L37.39 5.35L35.00 0.29L34.86 0.17L37.60 0.17L37.46 0.29L38.02 1.46L38.64 3.19L39.24 1.48L39.82 0.29L39.69 0.17L42.42 0.17L42.29 0.29L42.29 0.29L39.89 5.35L42.29 10.37ZM48.89 10.51L48.78 10.51L47.77 9.95L47.77 9.95Q47.39 10.22 47.01 10.37L47.01 10.37L47.01 10.37Q46.62 10.51 45.98 10.51L45.98 10.51L45.98 10.51Q45.36 10.51 44.84 10.37L44.84 10.37L44.84 10.37Q44.31 10.23 43.93 9.91L43.93 9.91L43.93 9.91Q43.55 9.59 43.34 9.07L43.34 9.07L43.34 9.07Q43.12 8.55 43.12 7.81L43.12 7.81L43.12 2.56L42.98 2.44L45.49 2.44L45.35 2.55L45.35 7.90L45.35 7.90Q45.35 8.13 45.55 8.25L45.55 8.25L45.55 8.25Q45.75 8.37 46.00 8.37L46.00 8.37L46.00 8.37Q46.24 8.37 46.45 8.25L46.45 8.25L46.45 8.25Q46.65 8.13 46.65 7.90L46.65 7.90L46.65 2.56L46.52 2.44L49.01 2.44L48.89 2.56L48.89 10.51ZM52.35 7.83L52.35 7.83L52.35 7.83Q52.35 8.13 52.58 8.29L52.58 8.29L52.58 8.29Q52.81 8.46 53.08 8.46L53.08 8.46L53.08 8.46Q53.35 8.47 53.59 8.32L53.59 8.32L53.59 8.32Q53.83 8.18 53.84 7.87L53.84 7.87L55.87 7.87L55.87 7.87Q55.87 8.61 55.67 9.11L55.67 9.11L55.67 9.11Q55.47 9.62 55.10 9.94L55.10 9.94L55.10 9.94Q54.74 10.26 54.23 10.40L54.23 10.40L54.23 10.40Q53.72 10.54 53.09 10.54L53.09 10.54L53.09 10.54Q51.72 10.54 50.95 9.83L50.95 9.83L50.95 9.83Q50.18 9.11 50.18 7.84L50.18 7.84L50.18 5.14L50.18 5.14Q50.18 4.58 50.32 4.08L50.32 4.08L50.32 4.08Q50.47 3.58 50.81 3.21L50.81 3.21L50.81 3.21Q51.16 2.84 51.72 2.63L51.72 2.63L51.72 2.63Q52.29 2.41 53.12 2.41L53.12 2.41L53.12 2.41Q54.43 2.41 55.15 3.04L55.15 3.04L55.15 3.04Q55.86 3.68 55.86 5.00L55.86 5.00L55.86 5.00Q55.86 5.74 55.55 6.20L55.55 6.20L55.55 6.20Q55.23 6.65 54.73 6.95L54.73 6.95L54.73 6.95Q54.22 7.25 53.59 7.44L53.59 7.44L53.59 7.44Q52.96 7.63 52.35 7.83ZM53.79 5.03L53.79 5.03L53.79 5.03Q53.79 4.76 53.56 4.63L53.56 4.63L53.56 4.63Q53.34 4.49 53.07 4.49L53.07 4.49L53.07 4.49Q52.79 4.49 52.57 4.62L52.57 4.62L52.57 4.62Q52.35 4.75 52.35 4.98L52.35 4.98L52.35 5.77L52.35 5.77Q52.82 5.68 53.11 5.60L53.11 5.60L53.11 5.60Q53.40 5.52 53.55 5.43L53.55 5.43L53.55 5.43Q53.70 5.35 53.75 5.25L53.75 5.25L53.75 5.25Q53.79 5.15 53.79 5.03Z"></path></g><!----><g data-v-423bf9ae="" id="ccf29361-0725-4f10-bf7d-7d4a0c6db130" transform="matrix(1.8075918526832744,0,0,1.8075918526832744,101.77233024520856,-9.118718371666738)" stroke="none" fill="white"><path d="M20.25 22.41c.19.24.48.39.79.39s.6-.14.79-.39c2.1-2.7 3.62-5.44 4.53-7.27.15-.31.14-.68-.04-.97a.999.999 0 0 0-.85-.47h-8.86c-.35 0-.67.18-.85.47s-.2.66-.04.97c.91 1.83 2.44 4.58 4.53 7.27zm3.57-6.71c-.71 1.3-1.64 2.85-2.78 4.43a43.476 43.476 0 0 1-2.78-4.43h5.56z"></path><path d="M6 15.7h5.13c.99 2.17 2.83 5.74 5.59 9.31-2.59 2.33-5.34 3.83-8.18 4.46-.26.06-.48.21-.63.44-.14.22-.19.49-.13.75l.94 4.25c.1.47.52.78.98.78.07 0 .14-.01.21-.02 3.97-.87 7.71-2.87 11.13-5.97 2.62 2.37 5.43 4.09 8.39 5.16l-8.11 18.63c-.13.31-.1.67.08.95.19.28.5.45.84.45h5.34c.4 0 .77-.24.92-.61l3.03-7.24h13.18l3.03 7.24c.16.37.52.61.92.61H54c.34 0 .65-.17.84-.45.18-.28.21-.64.08-.95L39.03 17c-.16-.37-.52-.6-.92-.6s-.76.24-.92.6l-5.23 12.02c-2.3-.78-4.52-2.12-6.61-4.01 2.77-3.58 4.6-7.15 5.59-9.31h5.14c.55 0 1-.45 1-1v-4.36c0-.55-.45-1-1-1H24.22V6.1c0-.55-.45-1-1-1h-4.36c-.55 0-1 .45-1 1v3.24H6c-.55 0-1 .45-1 1v4.36c0 .55.45 1 1 1zm32.12 4.21l14.36 33h-3.15l-3.03-7.24c-.16-.37-.52-.61-.92-.61H30.86c-.4 0-.77.24-.92.61l-3.03 7.24h-3.15l14.36-33zM7 11.34h11.86c.55 0 1-.45 1-1V7.1h2.36v3.24c0 .55.45 1 1 1h11.87v2.36H30.3c-.4 0-.76.24-.92.6-.91 2.09-2.92 6.19-6.15 10.19-.33.4-.29.99.08 1.35 2.45 2.39 5.09 4.07 7.86 5.04l-.94 2.16c-3-1.06-5.85-2.87-8.5-5.41-.39-.37-1-.37-1.39 0-3.05 2.93-6.38 4.9-9.89 5.86l-.51-2.31c3.1-.88 6.07-2.67 8.83-5.35.37-.36.41-.95.08-1.35-3.23-3.98-5.25-8.09-6.16-10.18-.16-.36-.52-.6-.92-.6H7v-2.36z"></path><path d="M32.69 42.68h10.86c.33 0 .65-.17.83-.45.19-.28.22-.63.09-.94l-5.43-12.98c-.16-.37-.52-.61-.92-.61s-.77.24-.92.61L31.77 41.3c-.13.31-.1.66.09.94.18.28.49.44.83.44zm5.43-11.38l3.93 9.39H34.2l3.92-9.39z"></path></g><!----></svg>